<svg width="248" height="166" viewBox="0 0 248 166" fill="none" xmlns="http://www.w3.org/2000/svg">
<g clip-path="url(#clip0_592_20)">
<path d="M239.882 110.708C239.346 110.708 238.806 110.762 238.266 110.871C237.904 110.943 237.498 111.028 237.067 111.113C236.725 110.987 236.373 110.892 236.022 110.813C236.66 109.889 237.245 108.846 237.713 107.666C238.936 104.593 240.398 98.8505 236.438 94.8845C234.874 93.3192 232.793 92.5008 230.685 92.5008C229.346 92.5008 227.996 92.8315 226.763 93.5102L223.92 95.0788C219.27 97.6399 215.997 103.202 214.61 106.411C214.166 106.165 213.705 105.957 213.23 105.797C212.704 105.289 212.072 104.798 211.32 104.341C210.514 103.85 209.694 103.475 208.863 103.209C208.904 103.042 208.942 102.885 208.969 102.741C209.15 101.974 209.212 101.203 209.171 100.45C210.48 97.3398 211.86 94.3968 213.667 91.713C215.218 89.4077 215.478 86.475 214.361 83.9344C214.033 83.1876 213.595 82.5056 213.073 81.9054C213.315 81.6189 213.541 81.3188 213.746 80.9983C214.186 80.3572 214.692 79.5217 215.044 78.3963C215.779 77.5813 216.356 76.606 216.715 75.5113L218.44 70.2597C219.837 69.1138 220.862 67.5008 221.248 65.6082C222.376 60.0769 224.043 55.5107 226.353 51.6538C227.904 49.0621 229.636 46.5829 231.529 44.2333C233.203 43.7183 234.723 42.6612 235.796 41.1232C236.315 40.3798 236.828 39.6296 237.34 38.8759C238.434 37.2731 239.465 35.7624 240.542 34.3643C241.645 32.932 242.885 31.4963 244.197 29.9754C244.795 29.2831 245.397 28.584 246.001 27.8713C247.245 26.4459 248 24.5839 248 22.548C248 18.2478 244.648 14.7319 240.408 14.4591C240.231 14.4489 240.053 14.4421 239.875 14.4421C239.612 14.4421 239.346 14.4557 239.083 14.4796C238.505 14.5342 237.949 14.6501 237.416 14.8206C237.381 14.8308 237.347 14.8377 237.313 14.8479C236.824 14.9775 236.008 15.1957 235.072 15.6527C234.002 16.1744 232.933 16.7064 231.87 17.2418C230.617 17.3612 229.086 17.784 227.559 18.9026C227.197 18.8548 226.831 18.8275 226.466 18.8275C225.027 18.8275 223.592 19.2061 222.321 19.9631C222.314 19.9631 222.308 19.9631 222.301 19.9631C220.148 19.9631 218.047 20.8191 216.506 22.3844C215.16 21.4909 213.592 21.0237 212.003 21.0237C211.084 21.0237 210.162 21.1806 209.27 21.4977C208.969 21.4636 208.669 21.4466 208.365 21.4466C206.557 21.4466 204.757 22.0467 203.277 23.2335C203.185 23.3085 203.093 23.3835 203.001 23.4586L202.908 23.5336C202.611 23.7518 202.331 23.9667 202.068 24.1747C200.999 23.6768 199.827 23.4142 198.631 23.4142C197.978 23.4142 197.319 23.4927 196.666 23.6563C196.082 23.7996 195.529 24.0076 195.003 24.2702C194.886 24.2668 194.774 24.2599 194.658 24.2599C193.52 24.2599 192.379 24.4987 191.316 24.9795C191.077 25.0886 190.865 25.1909 190.684 25.283C190.595 25.3 190.506 25.3137 190.418 25.3307C189.529 24.959 188.392 24.6453 187.052 24.6453C186.899 24.6453 186.717 24.6521 186.564 24.6589C184.452 24.7817 182.819 24.9386 181.248 25.1602C179.003 25.4808 176.748 25.832 174.568 26.1696C173.277 26.3708 171.982 26.572 170.69 26.7664C170.513 26.7937 170.332 26.8142 170.154 26.8414C168.702 24.7578 166.297 23.3869 163.57 23.3631C163.543 23.3631 163.512 23.3631 163.485 23.3631C163.393 23.3631 163.304 23.3631 163.212 23.3665C162.166 23.4006 161.172 23.6325 160.263 24.0281C160.041 24.1201 159.826 24.2088 159.617 24.3009C159.453 24.3691 159.238 24.4611 159.132 24.5021C159.02 24.5293 158.78 24.5771 158.603 24.6146C157.796 24.7749 156.693 24.9999 155.46 25.4876C152.914 26.4936 150.485 27.8202 148.182 29.44C148.09 26.5379 146.447 23.9053 143.877 22.5412L143.816 22.5037C143.273 22.1763 141.998 21.409 140.198 21.1396C138.315 20.8566 136.44 20.6179 134.625 20.386L134.414 20.3587C134.072 20.3144 133.706 20.2905 133.365 20.2905C132.449 20.2905 131.533 20.4474 130.662 20.7372C130.362 20.7202 130.064 20.6997 129.764 20.6827C129.169 20.3724 128.53 20.1302 127.85 19.97C126.747 19.7108 125.49 19.588 123.891 19.588C120.307 19.588 111.646 20.4167 107.867 22.3264C105.663 23.4415 104.088 25.4978 103.586 27.9122C103.542 28.1305 103.508 28.3453 103.484 28.5636C102.448 28.6625 101.413 28.9387 100.388 29.3957L100.293 29.4366C98.6834 30.1527 97.1631 30.8313 95.6222 31.4827C93.7397 32.2772 92.0212 33.1264 90.4393 34.0437C90.4393 33.9994 90.4393 33.9516 90.4393 33.9107C90.4393 33.8118 90.4393 33.7027 90.4393 33.5867C90.4495 33.4265 90.453 33.2628 90.453 33.0991C90.453 31.5372 90.0088 30.0777 89.2401 28.8398C89.9917 28.1237 90.7468 27.4075 91.4984 26.6914L91.6624 26.5379C94.1497 24.2224 95.4411 21.6478 95.5231 18.8548C95.5744 18.698 95.6256 18.5411 95.6803 18.3808C96.1073 17.0815 96.5515 15.7414 96.9546 14.333C97.0606 13.9715 97.1426 13.6032 97.2006 13.2315C97.9625 13.0439 98.6288 12.7268 99.1788 12.2903C100.238 12.0413 101.895 11.4718 103.248 10.0668C105.766 7.44783 105.38 5.24486 104.925 4.16384C104.225 2.49968 102.503 1.49368 100.706 1.70852L99.3257 1.87221C97.2895 2.11433 95.3079 3.42043 94.0574 4.49122C92.5405 3.25674 90.6033 2.56788 88.5294 2.56788C87.2141 2.56788 85.8304 2.8407 84.638 3.33517C83.8727 3.65232 83.1245 3.97969 82.3933 4.30366C81.0472 2.82706 79.1886 1.87903 77.1558 1.68806C76.8995 1.66419 76.6399 1.65055 76.3836 1.65055C74.016 1.65055 71.7508 2.68383 70.1997 4.50486C70.1621 4.54578 70.1211 4.59352 70.0767 4.64126C69.7521 4.99592 69.2089 5.5927 68.6828 6.39409C66.462 9.76674 64.2515 13.1394 62.0376 16.5155L61.6788 17.0611C61.262 15.6288 60.4455 14.3023 59.2736 13.2656C59.0925 12.529 58.8226 11.8163 58.4605 11.1376C57.2476 8.86305 55.1464 7.20912 52.543 6.48616C51.46 6.18607 50.3803 5.87915 49.3007 5.57224C46.0448 4.64809 42.6795 3.68983 39.2287 2.89526C35.737 2.09387 32.2453 1.46299 28.8664 0.852572C27.6159 0.627501 26.3689 0.40243 25.1218 0.167129C24.5513 0.0614138 23.9636 0.0068512 23.3692 0.0068512C22.7747 0.0068512 22.2998 0.0614138 22.0401 0.0886951C18.8115 0.320586 16.0202 2.44512 14.9508 5.50745C13.8643 8.62434 14.78 12.0891 17.2672 14.2648C17.4893 14.483 17.9539 15.5265 18.2614 16.2188L18.2922 16.287C18.6372 17.0679 18.9789 17.8727 19.324 18.7252C18.7158 19.7517 18.3298 20.9248 18.2273 22.1797C18.2102 22.3707 18.1897 22.5617 18.1726 22.7527C18.1043 23.404 18.0223 24.2122 18.0189 25.1398C18.012 26.4152 18.0257 27.6803 18.0393 28.9012C18.0633 31.1451 18.0906 33.2662 17.9847 35.3157C17.9164 36.6627 17.8924 37.9722 17.8651 39.2374C17.8104 42.0542 17.7592 44.7175 17.2228 47.0364C16.5532 49.9385 16.0578 52.8133 15.576 55.5925C15.2002 57.775 14.8415 59.8382 14.4144 61.8706C14.2128 62.8289 13.8507 63.9406 13.4714 65.1171C13.0717 66.3516 12.6173 67.7532 12.2586 69.2537C10.7519 75.5454 8.63361 82.0554 5.77396 89.1554C5.54505 89.7249 5.39814 90.2228 5.31273 90.5194L5.27515 90.6422C4.81391 92.1086 4.79 93.6159 5.13848 95.0175L0.331409 111.301C-0.847298 115.298 1.20263 119.537 5.07015 121.102C6.06437 121.504 7.09958 121.695 8.11771 121.695C9.07434 121.695 10.0207 121.521 10.909 121.197C11.6641 122.254 12.894 122.902 14.2128 122.902C14.5271 122.902 14.8449 122.865 15.1626 122.79C16.9016 122.374 18.1145 120.894 18.2614 119.199C18.5792 118.885 18.8491 118.513 19.0506 118.097C19.5392 117.095 19.7613 116.198 19.8023 115.407C22.1939 114.455 24.0525 112.402 24.6879 109.801C24.9578 108.702 25.0603 107.727 25.1355 107.018C25.1526 106.868 25.1697 106.677 25.1868 106.544C25.7505 104.948 26.3245 103.348 26.9019 101.749L27.7013 104.389L27.7082 104.423C28.1626 106.339 28.9552 107.765 29.8708 108.839C29.331 109.831 28.9928 110.943 28.9108 112.13L28.863 112.805C28.7878 113.889 28.9313 114.981 29.2866 116.007C29.3139 116.092 29.4643 116.484 29.6863 117.054C29.8196 117.392 29.9426 117.712 30.0553 118.009C30.0519 118.039 30.0519 118.07 30.0485 118.097C29.7649 118.841 29.5702 119.642 29.4745 120.485C29.4677 120.543 29.4608 120.601 29.4574 120.658C29.2114 120.942 28.9723 121.259 28.7468 121.607C28.3061 122.289 27.9917 122.994 27.7731 123.69C27.3084 124.423 26.9292 125.235 26.6456 126.118C25.6343 129.266 26.5397 132.628 28.9005 134.77C30.9641 136.758 33.1883 137.181 34.7155 137.181C34.9922 137.181 35.2656 137.167 35.5389 137.14C35.6585 137.147 35.7849 137.153 35.9215 137.157C36.1402 137.795 36.3554 138.429 36.5707 139.056C36.9602 140.199 37.6025 141.242 38.4498 142.105L39.5704 143.251C41.1352 144.85 43.2432 145.689 45.3819 145.689C46.6461 145.689 47.9204 145.396 49.0957 144.789C50.8416 143.892 52.1433 142.426 52.8642 140.707C53.6841 141.194 54.5724 141.58 55.5017 141.832C56.7624 142.177 58.071 142.351 59.3898 142.351C61.4294 142.351 63.5443 141.928 65.6694 141.099C70.4218 139.244 74.0126 136.952 76.9781 133.897C77.6102 133.242 78.5122 132.526 79.4654 131.769C80.0052 131.339 80.5655 130.892 81.1429 130.408C82.3865 129.365 83.2441 128.021 83.6882 126.561C83.8488 126.408 84.0094 126.248 84.1699 126.091C84.1768 126.507 84.1904 126.923 84.2178 127.332C84.3476 129.262 84.72 130.971 85.0514 132.478C85.1197 132.785 85.1847 133.089 85.2496 133.392C86.1686 137.784 88.1229 141.491 91.0577 144.41C93.48 146.818 96.2713 149.222 100.272 150.484C103.111 151.381 106.032 151.834 108.95 151.834C112.36 151.834 115.814 151.217 119.213 149.996C120.734 149.451 122.162 148.731 123.498 147.844C123.894 148.908 124.516 149.89 125.336 150.716C126.863 152.254 128.94 153.116 131.1 153.116C131.308 155.695 132.743 158.051 135.008 159.408C136.043 160.029 137.178 160.401 138.336 160.52C139.306 161.219 140.628 161.915 142.32 162.15C142.757 162.856 143.307 163.5 143.956 164.053C145.439 165.315 147.311 165.99 149.224 165.99C149.528 165.99 149.832 165.973 150.137 165.939C153.024 165.69 154.831 164.278 155.846 163.125C156.372 162.528 157.062 161.707 157.697 160.687C158.114 160.019 158.49 159.374 158.856 158.75C159.361 157.887 159.836 157.072 160.304 156.397C161.787 154.245 163.304 152.07 164.814 149.921C165.566 149.676 166.28 149.321 166.939 148.864C168.323 150.214 170.181 151.074 172.231 151.169L174.073 151.254C174.199 151.261 174.326 151.265 174.452 151.265C175.416 151.265 176.372 151.094 177.278 150.76C177.565 150.654 177.889 150.521 179.601 149.812C182.331 148.68 184.609 147.749 186.43 147.012C187.548 147.548 188.743 147.807 189.926 147.807C190.23 147.807 190.534 147.783 190.838 147.749C191.227 147.957 191.648 148.151 192.105 148.329C192.905 148.639 194.148 149.031 195.529 149.15C195.908 149.185 196.318 149.195 196.95 149.195C197.978 149.195 199.635 149.157 201.084 149.123C201.672 150.16 202.751 151.851 204.74 153.069C205.908 153.785 207.244 154.235 208.898 154.446C210.739 155.882 213.708 157.396 216.462 157.396C218.956 157.396 221.286 156.298 222.844 154.423C223.613 153.631 225.707 151.394 225.502 147.817C225.471 147.302 225.393 146.791 225.27 146.296C225.273 146.252 225.277 146.207 225.28 146.163C225.42 144.345 225.748 140.09 222.096 137.184C221.713 136.877 221.327 136.621 220.941 136.407C227.46 134.006 234.136 131.551 239.64 129.532C240.777 129.116 241.802 128.451 242.65 127.585L245.697 124.471C248.188 121.924 248.721 118.057 247.016 114.933C245.574 112.293 242.817 110.704 239.889 110.704L239.882 110.708ZM92.1783 103.352C91.8674 101.514 90.9245 99.819 89.4861 98.5743C91.4369 93.875 94.2112 89.6055 96.8282 85.9396C98.9567 89.0565 101.922 91.2936 105.332 92.3302C104.099 93.1657 102.899 94.0865 101.738 95.0925C100.651 96.0371 99.6401 96.9817 98.6629 97.9025C97.7234 98.4242 96.8761 99.1403 96.1859 100.03C95.7247 100.627 95.2498 101.251 94.7715 101.906C93.8354 102.227 92.9607 102.718 92.1783 103.348V103.352ZM61.5729 101.903C61.8702 100.481 61.7882 98.9698 61.2654 97.5205L61.2381 97.4284C61.1117 97.0295 60.9067 96.3747 60.5343 95.6142C61.4636 96.2724 62.6491 96.8317 64.1524 97.1249C64.2549 97.7558 64.4326 98.3696 64.6752 98.9494C64.3848 99.5427 64.0499 100.174 63.7049 100.825C63.2949 101.599 62.8678 102.407 62.451 103.263C62.1537 102.816 61.8599 102.363 61.5695 101.899L61.5729 101.903ZM180.547 83.9276L183.298 85.3053C182.983 85.5508 182.686 85.8168 182.413 86.0999C181.791 86.3829 181.207 86.7376 180.667 87.1536C180.544 87.1775 180.424 87.1979 180.305 87.2286C179.604 87.0342 178.876 86.9354 178.142 86.9354C177.363 86.9354 176.574 87.0479 175.798 87.2798C174.578 87.6447 173.605 88.1801 172.901 88.6234C171.948 88.8792 171.046 89.2952 170.229 89.8647C169.31 90.5058 168.439 91.1537 167.598 91.7778L167.448 91.8903C165.771 93.1385 164.213 94.4173 162.757 95.7472C162.334 95.3653 161.876 95.0209 161.38 94.7208C160.909 94.4343 160.461 94.2024 160.041 93.991C160.492 92.6576 160.943 91.3277 161.394 89.9943C162.112 90.1955 162.846 90.3012 163.577 90.3012C165.217 90.3012 166.84 89.8067 168.213 88.8485C168.723 88.5279 169.826 87.8322 170.827 86.5637C170.923 86.5227 171.018 86.4784 171.114 86.4307L171.148 86.417C171.473 86.2704 172.146 85.9635 172.884 85.4588L176.113 83.249C176.745 82.8159 177.383 82.3794 178.022 81.9429C178.709 82.7477 179.556 83.4297 180.551 83.9276H180.547ZM49.7995 67.3201C50.5136 66.6619 51.2208 66.014 51.9246 65.3695C52.0305 65.4377 52.1399 65.5025 52.2492 65.5673C53.2092 66.1163 54.2581 66.4539 55.3343 66.5801C55.4505 67.037 55.6077 67.4804 55.8024 67.9066C55.6077 69.9459 55.4368 72.0534 55.4232 74.27C55.4027 77.3221 55.594 80.2821 55.7819 83.1467C55.8536 84.272 55.9288 85.394 55.9869 86.5193C56.0381 87.4673 56.1987 88.3063 56.4345 89.0497C54.2103 85.5338 52.666 82.2191 51.7299 78.9556C50.7835 75.6579 50.1856 72.1386 49.5467 68.4147C49.5057 68.1692 49.4613 67.9237 49.4203 67.6747C49.5467 67.5588 49.6731 67.4394 49.8029 67.3235L49.7995 67.3201ZM111.021 129.477C111.321 128.335 111.328 127.377 111.301 126.732C111.29 126.231 111.236 125.736 111.137 125.259C111.222 125.023 111.311 124.768 111.4 124.495C111.649 123.728 111.759 123.005 111.8 122.381C112.971 121.218 114.14 120.263 115.339 119.496C115.37 119.745 115.401 119.963 115.428 120.147C115.438 120.225 115.452 120.307 115.465 120.399L115.219 121.474C114.587 124.246 115.459 127.134 117.491 129.095C117.28 129.269 117.068 129.446 116.856 129.62C116.576 129.852 116.299 130.081 116.029 130.306C115.923 130.302 115.821 130.299 115.718 130.299C114.622 130.299 113.515 130.521 112.469 130.978C112.141 131.121 111.837 131.261 111.547 131.394C111.287 131.513 110.932 131.673 110.816 131.714C110.716 131.748 110.617 131.782 110.518 131.82C110.617 131.162 110.788 130.398 111.031 129.481L111.021 129.477Z" fill="#232728"/>
<path d="M86.3258 69.4685C83.5515 73.0219 80.7978 76.5889 77.9928 80.1184C76.7048 81.7382 75.3279 83.2864 73.975 84.8517C73.4625 85.4417 72.8646 85.827 71.99 85.0904C71.2383 86.2192 70.4935 87.2832 69.8068 88.3846C69.3353 89.1451 65.6318 89.5952 65.1159 88.8962C64.9861 88.7188 64.9758 88.4494 64.928 88.2175C64.8084 87.6515 65.0373 86.9421 64.2207 86.6693C64.1217 86.6352 64.1012 86.2976 64.0909 86.0964C63.8859 82.1713 63.5135 78.2462 63.5409 74.3245C63.5614 70.9314 64.0363 67.5417 64.3027 64.2748C64.0397 64.343 63.6194 64.4521 63.1992 64.5612C63.1924 64.1043 63.0694 63.6098 63.1992 63.1972C64.1217 60.2917 65.0988 57.4067 66.0588 54.5115C66.1511 54.2318 66.2707 53.959 66.4312 53.5396C62.8883 55.1969 59.8442 57.4954 56.2773 58.5321C55.6999 56.2643 57.1485 55.2685 58.4502 54.1125C61.5934 51.3196 64.6717 48.455 67.7569 45.6416C67.4323 45.2904 67.0599 45.0653 67.0257 44.7959C66.9916 44.5299 67.2307 44.1309 67.4699 43.9434C69.4788 42.3713 71.498 40.8094 73.5479 39.2919C76.0112 37.4709 78.5087 35.6908 80.9994 33.9039C81.324 33.672 81.6861 33.4878 82.3318 33.1025C82.2943 33.9311 82.3558 34.4938 82.2328 35.0156C81.4333 38.4121 80.5928 41.8018 79.7694 45.1949C79.7045 45.4575 79.6772 45.7269 79.7831 46.0577C80.176 45.2495 80.5689 44.4413 80.9584 43.6365C81.0848 43.6706 81.2112 43.7047 81.3376 43.7388C81.2898 44.0832 81.2864 44.4379 81.1907 44.7652C79.9608 49.0484 78.5941 53.2975 77.5248 57.6215C76.8346 60.4111 76.5886 63.3063 76.1274 66.1538C75.9087 67.5008 75.6559 68.8444 75.4168 70.188C75.5022 70.2221 75.591 70.2596 75.6764 70.2937C76.0898 69.6219 76.4691 68.9297 76.9303 68.292C77.0977 68.0566 77.453 67.9578 77.7229 67.7941C77.8118 68.1044 77.9962 68.4215 77.9689 68.7216C77.9211 69.2229 77.7332 69.714 77.7263 70.2937C78.1022 69.8129 78.4677 69.3218 78.8572 68.8478C83.6814 63.013 87.6924 56.6121 91.7273 50.242C92.6293 48.8165 92.7079 46.8727 93.2169 44.9698C92.3526 44.9698 91.7683 45.021 91.2012 44.9494C90.9074 44.9119 90.5384 44.7209 90.4017 44.4856C90.3163 44.3424 90.5794 43.9638 90.7263 43.7183C90.8117 43.5785 90.9825 43.4898 91.1158 43.3807C93.4356 41.5017 96.039 40.1104 98.7825 38.9509C100.429 38.2552 102.062 37.5254 103.692 36.7991C104.512 36.4342 104.878 36.649 104.734 37.6107C106.125 37.1401 107.484 36.7036 108.827 36.2159C109.452 35.9875 109.89 36.0011 110.334 36.6013C110.727 37.1333 110.621 37.4334 110.365 38.0165C109.558 39.8341 109.066 41.7916 108.226 43.5887C105.475 49.4713 102.602 55.2958 99.8245 61.1681C98.1197 64.7727 96.5139 68.4215 94.8535 72.0431C94.6553 72.4728 94.4059 72.8786 94.0096 73.2367C93.8934 71.46 95.161 70.0652 95.2566 68.3261C93.152 72.3535 91.0474 76.3809 88.9394 80.4083C88.9941 80.4594 89.0488 80.5106 89.1034 80.5651C89.5988 80.1389 90.0737 79.6819 90.6033 79.3C90.8049 79.1533 91.1294 79.1738 91.3993 79.1192C91.3447 79.3613 91.3618 79.658 91.2251 79.8422C87.607 84.8006 84.269 89.9192 81.9219 95.621C81.529 96.5724 81.0677 97.4966 80.5962 98.4105C80.4562 98.6833 80.176 98.888 79.9573 99.1233C79.8583 99.0653 79.7626 99.0039 79.6635 98.9459L80.0462 97.6808C79.9915 97.6501 79.9368 97.616 79.8822 97.5853C78.2969 100.139 76.7116 102.697 75.1263 105.251C75.0341 105.207 74.9384 105.166 74.8462 105.122C74.6856 103.911 75.8472 103.123 76.0659 101.807C75.0136 103.171 74.016 104.341 73.1618 105.606C72.0651 107.229 71.0948 108.938 70.0425 110.592C69.8136 110.953 69.5096 111.294 69.1747 111.56C68.9253 111.758 68.57 111.823 68.2625 111.945C68.2625 111.594 68.1908 111.226 68.2625 110.888C69.0244 107.41 71.1427 104.532 72.5229 101.326C74.0604 97.7626 75.6286 94.2126 77.1797 90.6558C77.2719 90.4444 77.33 90.2227 77.2139 89.8783C75.6047 91.8766 73.9921 93.875 72.3829 95.8734C72.3111 95.8597 72.2428 95.8461 72.171 95.8324C72.2428 95.4369 72.253 95.014 72.4034 94.6525C72.6801 93.991 73.0798 93.3805 73.3634 92.7224C76.7116 84.954 81.5563 78.0382 85.8167 70.7882C86.0525 70.3892 86.2609 69.9766 86.4829 69.5674C86.4317 69.5367 86.3804 69.506 86.3292 69.4719L86.3258 69.4685Z" fill="white"/>
<path d="M15.0806 111.188C14.6672 112.13 14.8756 113.037 15.1114 113.964C15.1353 114.06 15.1592 114.183 15.231 114.241" fill="white"/>
<path d="M95.2532 9.38477C95.8374 9.30634 96.2201 9.24154 96.2338 8.87666C96.2474 8.51177 95.6734 8.67205 96.0903 8.14347C96.5071 7.61148 98.4238 6.05986 99.804 5.89617L101.184 5.73248C101.184 5.73248 101.369 6.17239 100.32 7.26024C99.2711 8.34808 97.6824 8.4231 97.4569 8.50154C97.2314 8.57997 96.9751 8.59361 96.7394 9.01306C96.5037 9.43251 95.2532 9.38477 95.2532 9.38477Z" fill="white"/>
<path d="M221.081 113.732C222.277 113.047 223.049 112.573 222.755 111.772C222.465 110.97 221.365 111.823 221.795 110.309C222.226 108.794 225.003 103.744 227.846 102.175L230.688 100.607C230.688 100.607 231.474 101.394 230.169 104.672C228.864 107.949 225.488 109.507 225.068 109.882C224.648 110.254 224.108 110.506 223.968 111.618C223.828 112.73 221.081 113.732 221.081 113.732Z" fill="#FF3D46"/>
<path d="M94.6109 119.888C96.039 114.316 99.049 109.599 102.616 104.985C102.53 105.275 102.493 105.408 102.483 105.453C103.976 104.068 105.476 102.591 107.064 101.214C110.887 97.8956 115.274 95.6756 120.283 94.8026C121.83 94.5332 123.416 94.4343 124.987 94.3763C125.674 94.3524 126.371 94.6321 127.194 94.8026C124.813 95.488 122.377 95.4505 120.122 96.552C125.876 95.7949 131.445 96.3815 136.928 97.3841C135.234 100.218 133.59 102.97 131.947 105.719C131.93 105.719 131.913 105.715 131.899 105.712C132.155 104.996 132.412 104.279 132.668 103.563C132.613 103.543 132.562 103.522 132.507 103.502C131.469 105.954 130.43 108.406 129.391 110.861C131.311 108.972 132.429 106.571 133.754 104.314C133.819 104.348 133.884 104.385 133.949 104.419C133.864 104.631 133.799 104.856 133.686 105.054C130.908 110.005 128.131 114.953 125.343 119.898C124.772 120.914 124.164 121.91 123.566 122.909C123.474 123.066 123.337 123.196 123.129 123.274C123.46 121.825 123.792 120.372 124.12 118.933C123.976 119.066 123.826 119.213 123.525 119.492C123.457 118.926 123.365 118.51 123.368 118.097C123.375 117.153 123.084 116.317 122.562 115.547C121.902 114.571 121.236 113.599 120.594 112.617C120.44 112.382 120.358 112.102 120.32 112.017C120.505 111.564 120.782 111.229 120.73 110.95C120.607 110.251 120.238 109.589 119.487 109.449C118.879 109.337 118.216 109.408 117.597 109.517C117.358 109.558 117.177 109.923 116.965 110.138C116.849 110.254 116.709 110.469 116.61 110.455C114.4 110.104 112.842 111.495 111.188 112.532C108.53 114.196 106.241 116.307 104.177 118.664C103.07 119.929 102.476 120.959 102.165 122.34C102.466 122.08 102.753 121.801 103.074 121.572C103.227 121.463 103.446 121.446 103.637 121.392C103.651 121.603 103.726 121.832 103.668 122.019C103.422 122.776 103.101 123.506 102.872 124.266C102.332 126.074 101.905 127.908 101.987 129.845C102.305 128.856 102.623 127.868 102.937 126.879C103.016 126.889 103.098 126.899 103.176 126.909C103.176 127.083 103.207 127.264 103.163 127.424C102.513 129.883 102.056 132.345 102.373 134.92C102.77 138.115 105.455 139.708 107.601 140.287C109.712 140.857 111.577 140.038 113.477 139.377C114.181 139.131 114.851 138.787 115.708 138.415C115.407 139.292 114.676 139.397 114.177 139.749C113.658 140.117 113.091 140.42 112.578 140.813C114.731 140.212 116.952 139.755 118.786 138.436C120.437 137.249 121.967 135.895 123.552 134.616C123.624 134.558 123.802 134.504 123.816 134.524C123.891 134.644 124.007 134.807 123.976 134.916C123.843 135.36 123.723 135.827 123.488 136.219C121.807 139.019 119.586 141.266 116.46 142.388C111.936 144.011 107.334 144.236 102.712 142.777C100.32 142.023 98.5126 140.41 96.7838 138.688C94.8466 136.758 93.7465 134.388 93.193 131.752C92.8514 130.111 92.4243 128.471 92.315 126.81C92.2091 125.242 92.3286 123.622 92.5951 122.07C93.0735 119.281 93.5791 116.467 94.8091 113.882C95.4514 112.529 96.2748 111.26 97.0366 109.968C97.1938 109.702 97.4159 109.371 97.7985 109.76C95.7042 112.832 94.628 116.198 94.6143 119.901L94.6109 119.888Z" fill="#FF3D46"/>
<path d="M130.55 132.192C130.768 131.24 131.92 130.954 132.275 129.944C131.113 130.735 130.054 131.445 129.005 132.175C128.479 132.539 127.987 132.956 127.461 133.32C127.294 133.436 127 133.576 126.887 133.508C126.733 133.412 126.61 133.119 126.627 132.928C126.692 132.185 126.819 131.448 126.928 130.712C126.955 130.538 127.03 130.371 127.054 130.197C127.266 128.73 127.461 127.261 127.686 125.794C127.721 125.562 127.871 125.351 127.97 125.129C128.11 125.347 128.264 125.559 128.383 125.787C128.428 125.876 128.401 126.002 128.407 126.111C128.465 126.128 128.524 126.145 128.582 126.162C128.79 125.491 129.033 124.826 129.197 124.144C130.081 120.481 130.922 116.805 131.831 113.149C132.251 111.451 132.781 109.78 133.286 108.106C133.382 107.792 133.594 107.516 133.754 107.222C133.846 107.246 133.939 107.27 134.031 107.294C133.983 107.809 133.932 108.32 133.884 108.835C133.915 108.846 133.946 108.852 133.976 108.863C134.342 107.628 134.718 106.397 135.076 105.163C135.678 103.079 136.238 100.985 136.884 98.9118C137.058 98.356 137.379 97.7524 138.216 98.0252C138.308 98.0559 138.534 97.899 138.595 97.7762C138.906 97.1488 139.173 96.4974 139.477 95.8631C139.545 95.7233 139.672 95.5255 139.795 95.5085C140.512 95.4028 141.236 95.3277 141.957 95.2732C142.538 95.2289 142.688 95.5392 142.569 96.0712C142.466 96.5247 142.391 96.9885 142.34 97.4523C142.32 97.633 142.361 97.9502 142.456 97.9877C142.63 98.0525 142.921 98.0252 143.064 97.9092C143.512 97.5512 143.997 97.1931 144.311 96.7293C144.923 95.8222 145.422 94.8367 145.985 93.8955C146.078 93.742 146.269 93.6431 146.416 93.5204C146.46 93.725 146.6 93.9739 146.529 94.1274C145.856 95.5903 145.066 97.0021 144.462 98.4924C142.955 102.199 141.53 105.94 140.068 109.664C139.996 109.848 139.884 110.019 139.788 110.196C139.716 110.169 139.641 110.141 139.569 110.114C139.829 109.047 140.089 107.976 140.348 106.909C137.82 112.437 135.831 118.159 133.905 123.905C133.952 123.953 133.997 124 134.045 124.045C134.779 123.55 135.548 123.097 136.238 122.544C137.106 121.852 137.898 121.071 138.739 120.341C138.876 120.222 139.077 120.178 139.251 120.099C139.33 120.273 139.412 120.447 139.484 120.604C140.024 120.338 140.608 120.079 141.154 119.758C141.315 119.663 141.377 119.39 141.459 119.189C142.924 115.567 144.267 111.891 146.214 108.488C146.618 107.782 147.113 107.127 147.567 106.448C147.649 106.499 147.728 106.551 147.81 106.598C147.021 108.112 146.228 109.623 145.439 111.137C145.5 111.171 145.558 111.202 145.62 111.236C147.56 107.642 149.542 104.075 152.091 100.658C152.18 100.985 152.21 101.101 152.251 101.248C152.48 100.968 152.696 100.702 153.013 100.307C153.297 100.873 153.536 101.343 153.785 101.841C153.867 101.442 153.953 101.05 154.035 100.658C154.089 100.658 154.144 100.658 154.195 100.658C154.233 101.067 154.271 101.476 154.312 101.933C154.551 101.429 154.776 100.955 154.971 100.552C155.791 100.951 156.522 101.251 157.192 101.657C157.434 101.804 157.684 102.199 157.667 102.465C157.53 104.791 157.318 107.11 157.158 109.432C157.011 111.557 156.888 113.681 156.775 115.809C156.648 118.2 156.536 120.59 156.443 122.984C156.368 124.955 156.344 126.926 156.266 128.897C156.225 129.893 156.122 130.889 156.034 131.885C156.02 132.048 155.934 132.205 155.852 132.461C155.671 132.26 155.559 132.134 155.446 132.011C154.359 132.833 150.957 134.401 149.846 134.514C150.232 134.115 150.495 133.846 150.762 133.573C150.734 133.532 150.711 133.491 150.683 133.45C150.072 133.869 149.457 134.289 148.852 134.715C148.743 134.79 148.674 134.93 148.562 134.988C148.261 135.135 147.943 135.251 147.632 135.38C147.595 135.073 147.492 134.756 147.533 134.459C147.612 133.866 147.714 133.269 147.906 132.707C148.025 132.352 148.415 132.083 148.524 131.728C148.849 130.647 149.136 129.549 149.364 128.444C149.85 126.074 150.294 123.693 150.741 121.317C150.806 120.976 150.786 120.621 150.813 120.161C150.348 120.345 149.983 120.481 149.624 120.638C148.056 121.327 146.495 122.029 144.919 122.705C144.506 122.882 144.233 123.11 144.1 123.564C143.703 124.921 143.266 126.265 142.952 127.66C143.471 126.715 143.99 125.77 144.506 124.826C144.564 124.843 144.622 124.863 144.677 124.88C144.656 125.023 144.66 125.18 144.609 125.31C143.676 127.584 142.688 129.839 141.814 132.137C141.336 133.392 140.987 134.702 140.669 136.008C140.365 137.259 140.181 138.538 139.938 139.803C139.914 139.919 139.866 140.032 139.682 140.144C139.651 139.905 139.62 139.663 139.586 139.384C139.402 139.39 139.21 139.397 138.985 139.408C138.879 139.687 138.759 139.97 138.667 140.26C138.469 140.87 138.308 141.491 138.083 142.091C138.015 142.275 137.786 142.402 137.629 142.555C137.567 142.361 137.444 142.163 137.458 141.975C137.509 141.113 137.598 140.25 137.588 139.363C137.386 140.073 137.171 140.778 136.983 141.491C136.836 142.05 136.713 142.613 136.597 143.179C136.467 143.8 136.019 143.991 135.463 144.114C134.26 144.383 133.068 144.707 131.868 144.987C131.626 145.045 131.366 145.014 131.113 145.024C131.123 144.789 131.079 144.53 131.158 144.318C131.574 143.206 132.022 142.105 132.384 140.963C132.145 141.368 131.906 141.774 131.663 142.18C131.605 142.16 131.547 142.139 131.489 142.119C131.54 141.883 131.557 141.634 131.65 141.42C133.734 136.608 135.825 131.799 137.912 126.988C137.919 126.974 137.892 126.95 137.827 126.831C137.471 127.087 137.102 127.312 136.774 127.588C135.322 128.802 133.894 130.043 132.432 131.244C131.913 131.67 131.318 132.011 130.761 132.389C130.696 132.325 130.628 132.26 130.563 132.192H130.55ZM145.839 118.237C145.907 118.282 145.972 118.329 146.04 118.374C147.465 117.579 148.89 116.781 150.311 115.987C150.342 116.041 150.369 116.096 150.4 116.15C150.321 116.256 150.242 116.362 150.116 116.532C150.984 116.399 150.762 115.765 150.772 115.325C150.806 113.62 150.806 111.915 150.789 110.213C150.779 109.211 150.707 108.211 150.663 107.209C150.588 107.195 150.512 107.181 150.437 107.168C148.903 110.858 147.373 114.547 145.839 118.237Z" fill="#FF3D46"/>
<path d="M151.408 137.436C150.447 138.681 149.556 139.837 148.739 140.898C152.494 137.607 156.324 134.248 160.154 130.889C160.127 130.848 160.096 130.81 160.068 130.77C159.679 131.076 159.303 131.4 158.897 131.683C158.787 131.762 158.589 131.714 158.432 131.724C158.487 131.581 158.5 131.39 158.599 131.298C161.599 128.601 164.794 126.156 168.121 123.878C169.532 122.913 170.916 121.907 172.46 120.815C171.456 120.614 170.585 120.44 169.713 120.266C169.727 120.331 169.741 120.399 169.751 120.464C169.525 120.553 169.29 120.74 169.081 120.71C168.357 120.611 167.643 120.427 166.922 120.294C163.745 119.704 160.547 119.465 157.298 119.854C157.24 119.588 157.192 119.359 157.13 119.08C157.393 118.97 157.643 118.865 157.984 118.721C157.383 118.452 157.496 118.111 157.735 117.719C157.964 117.344 158.159 116.941 158.343 116.542C158.405 116.406 158.394 116.239 158.432 116.007C158.23 116.147 158.087 116.246 157.947 116.345C157.916 116.321 157.882 116.297 157.851 116.273C158.271 115.567 158.688 114.861 159.108 114.155C159.057 114.128 159.006 114.097 158.958 114.07C158.63 114.404 158.302 114.738 157.971 115.073C157.902 115.021 157.834 114.97 157.766 114.919C157.848 114.708 157.902 114.483 158.012 114.292C159.833 111.185 161.657 108.078 163.499 104.982C163.605 104.805 163.871 104.719 164.062 104.593C164.049 104.808 164.093 105.043 164.015 105.231C163.82 105.718 163.574 106.186 163.461 106.752C163.591 106.605 163.728 106.465 163.854 106.315C166.331 103.318 169.18 100.709 172.296 98.3935C173.154 97.7558 174.008 97.1181 174.886 96.5076C175.04 96.3985 175.289 96.4258 175.515 96.4906C176.458 96.1803 177.158 95.3414 178.142 95.0447C178.186 95.1129 178.231 95.1845 178.275 95.2527C177.465 95.8734 176.656 96.4906 175.846 97.1112C175.863 97.1419 175.884 97.176 175.901 97.2067C176.724 96.8487 177.541 96.4701 178.378 96.1428C178.829 95.9688 179.31 95.8427 179.789 95.7745C180.411 95.6824 180.667 95.945 180.602 96.5724C180.537 97.1897 180.421 97.8035 180.445 98.4583C180.807 97.5818 181.145 96.6952 181.552 95.8393C181.692 95.546 182.102 95.0822 182.218 95.1299C182.73 95.3311 182.437 95.7779 182.303 96.0916C181.507 97.9467 180.739 99.8155 179.857 101.63C178.326 104.774 176.721 107.887 175.132 111.001C174.93 111.393 174.616 111.731 174.356 112.092C174.261 112.041 174.162 111.986 174.066 111.935C174.343 111.332 174.623 110.725 174.975 109.961C174.5 110.169 174.155 110.319 173.608 110.561C174.223 109.132 174.787 107.826 175.33 106.561C171.627 107.325 164.664 112.607 161.961 116.761C163.953 116.795 165.938 116.737 167.906 116.887C169.85 117.037 171.845 116.737 173.745 117.337L173.755 117.521C173.181 117.634 172.607 117.743 172.033 117.855C172.023 117.889 172.013 117.923 172.002 117.954C172.573 118.121 173.147 118.285 173.714 118.459C174.261 118.626 174.831 118.745 175.337 118.994C175.597 119.12 175.894 119.465 175.918 119.734C176.037 121.146 176.082 122.561 176.136 123.98C176.14 124.099 176.003 124.222 175.819 124.543C175.662 123.929 175.552 123.509 175.419 122.991C173.632 126.241 171.948 129.44 169.932 132.437C169.847 132.396 169.765 132.352 169.679 132.311C169.953 131.741 170.222 131.169 170.503 130.606C170.786 130.036 171.083 129.474 171.264 128.833C170.632 129.675 169.949 130.483 169.379 131.363C167.281 134.579 165.221 137.822 163.14 141.051C162.88 141.457 162.586 141.842 162.306 142.235L162.019 142.102C162.098 141.812 162.125 141.495 162.258 141.232C163.116 139.541 163.994 137.863 164.865 136.181C164.92 136.076 164.961 135.96 164.92 135.793C164.141 136.867 163.352 137.931 162.59 139.015C159.59 143.281 156.573 147.537 153.618 151.834C152.6 153.311 151.759 154.91 150.81 156.434C150.506 156.922 150.137 157.369 149.754 157.802C149.658 157.908 149.409 157.88 149.231 157.911C149.235 157.754 149.197 157.58 149.252 157.444C149.419 157.035 149.624 156.642 149.832 156.213C149.241 155.865 148.596 155.568 148.059 155.132C147.837 154.954 147.748 154.474 147.783 154.15C147.861 153.474 148.063 152.809 148.227 152.083C146.915 152.376 145.757 152.871 144.687 153.594C143.536 154.375 143.409 154.347 142.507 153.427C142.531 152.939 142.552 152.513 142.572 152.063C142.354 152.083 142.296 152.069 142.272 152.093C141.763 152.659 141.247 152.745 140.539 152.346C139.928 152.001 139.812 152.093 139.197 152.482C139.351 150.477 149.528 137.839 151.418 137.447L151.408 137.436Z" fill="#FF3D46"/>
<path d="M199.56 102.506C200.004 101.95 200.449 101.394 200.893 100.839C200.947 100.859 201.005 100.88 201.06 100.903C201.012 101.088 200.995 101.292 200.906 101.456C197.982 106.796 195.894 112.508 193.54 118.101C192.314 121.017 191.019 123.908 189.738 126.8C189.645 127.005 189.396 127.138 189.218 127.305C189.102 127.09 188.89 126.872 188.89 126.657C188.904 125.688 188.989 124.72 189.03 123.751C189.044 123.438 188.993 123.121 188.972 122.807C188.897 122.766 188.819 122.725 188.743 122.684C188.402 122.994 188.053 123.295 187.722 123.615C187.582 123.751 187.493 123.946 187.35 124.082C187.22 124.205 187.049 124.287 186.899 124.386C186.844 124.171 186.694 123.925 186.752 123.748C186.95 123.121 187.25 122.524 187.452 121.896C187.978 120.256 188.467 118.606 188.986 116.965C189.587 115.069 190.206 113.183 190.824 111.294C190.862 111.178 190.968 111.086 191.097 110.899C191.169 111.107 191.21 111.229 191.275 111.413C191.661 110.186 192.03 109.003 192.447 107.676C191.224 108.205 190.11 108.675 189.013 109.18C188.897 109.234 188.802 109.504 188.822 109.657C188.894 110.223 188.658 110.459 188.115 110.558C187.418 110.68 186.741 110.919 186.044 111.045C185.269 111.185 184.955 111.683 184.814 112.382C184.261 115.144 183.704 117.906 183.13 120.665C183.014 121.231 182.829 121.787 182.59 122.326C182.242 121.508 182.765 120.798 182.819 120.038C182.877 119.243 182.952 118.449 182.952 117.637C182.525 119.206 182.003 120.754 181.692 122.343C181.203 124.822 180.865 127.329 180.445 129.818C180.417 129.975 180.247 130.105 180.141 130.248C180.045 130.084 179.912 129.927 179.867 129.75C179.816 129.545 179.843 129.317 179.778 129.061C179.55 129.944 179.075 130.449 178.132 130.575C177.828 130.616 177.547 131.124 177.325 131.465C177.059 131.878 176.864 132.335 176.639 132.775C176.557 132.768 176.475 132.758 176.393 132.751C176.318 132.43 176.27 132.103 176.16 131.793C175.99 131.312 175.757 130.855 175.597 130.374C175.535 130.186 175.549 129.944 175.61 129.753C176.307 127.588 177.021 125.429 177.729 123.271C177.77 123.148 177.77 123.015 177.732 122.865C177.421 123.625 177.114 124.382 176.803 125.143C176.728 125.112 176.649 125.081 176.574 125.047C176.878 121.293 177.971 117.739 179.345 114.247C179.064 114.568 178.788 114.888 178.508 115.206C178.436 115.158 178.367 115.11 178.296 115.062C178.371 114.796 178.408 114.513 178.531 114.271C179.925 111.512 180.718 108.535 181.647 105.613C182.836 101.865 183.967 98.1002 185.139 94.3456C185.313 93.7898 185.593 93.3158 186.325 93.401C186.584 93.4317 186.854 93.3908 187.114 93.3567C187.688 93.2782 188.06 93.0225 188.012 92.3609C187.978 91.9005 188.241 91.6277 188.665 91.4709C189.536 91.1503 190.401 90.8127 191.415 90.4308L191.248 91.5322C191.296 91.5698 191.34 91.6073 191.388 91.6448C191.904 91.2117 192.423 90.782 192.936 90.3455C193.137 90.1716 193.311 89.9567 193.53 89.8135C193.745 89.6737 194.005 89.6055 194.248 89.5066C194.203 89.7487 194.207 90.0113 194.107 90.2261C193.574 91.389 193.004 92.5348 192.468 93.6943C190.848 97.1965 189.222 100.699 187.643 104.218C187.155 105.306 186.799 106.455 186.393 107.58C186.335 107.737 186.338 107.915 186.297 108.177C187.384 107.577 188.525 107.229 189.434 106.479C189.41 106.424 189.386 106.37 189.362 106.315C189.051 106.397 188.737 106.479 188.426 106.561C188.405 106.52 188.385 106.479 188.368 106.438C188.47 106.353 188.559 106.244 188.675 106.189C190.148 105.473 191.613 104.736 193.106 104.065C193.841 103.734 193.885 103.062 194.087 102.455C194.722 100.556 195.348 98.6492 195.925 96.7157C195.583 97.2647 195.238 97.8103 194.815 98.4856C194.64 97.2306 200.008 85.1382 200.876 84.6846C200.821 84.8858 200.78 85.0359 200.739 85.1893C200.77 85.2098 200.8 85.2507 200.835 85.2507C201.231 85.2507 201.627 85.2234 202.024 85.2371C202.557 85.2541 202.96 85.3769 203.213 85.9771C203.359 86.3249 203.851 86.6387 204.248 86.7478C205.051 86.9626 205.891 87.024 206.923 87.1809C203.643 92.054 201.682 97.2886 199.56 102.493V102.506Z" fill="#FF3D46"/>
<path d="M172.6 143.084C172.6 143.084 176.751 141.535 177.66 140.605C178.566 139.67 180.301 138.163 180.301 138.163C180.301 138.163 196.783 130.333 199.68 129.494C202.577 128.655 203.373 128.12 203.373 128.12L206.773 126.855C206.773 126.855 204.757 128.277 203.435 129.078C202.112 129.88 197.049 132.741 197.049 132.741C197.049 132.741 215.208 125.515 215.307 125.317C215.406 125.119 224.962 121.085 228.061 120.464C231.156 119.84 234.259 118.725 234.259 118.725C234.259 118.725 234.324 119.963 234.084 120.004C233.845 120.045 239.875 118.82 239.875 118.82L236.828 121.934C236.828 121.934 192.324 138.262 191.227 138.831C190.131 139.401 189.919 139.714 189.919 139.714C189.919 139.714 190.681 138.391 190.896 138.194C191.111 137.996 189.796 137.696 189.751 137.225C189.707 136.754 175.214 142.889 174.438 143.176L172.597 143.091L172.6 143.084Z" fill="#FF3D46"/>
<path d="M189.181 131.465C189.669 131.285 191.955 130.282 193.964 129.382C195.973 128.481 195.395 128.492 195.976 128.485C196.557 128.478 198.669 127.707 199.7 127.025C200.732 126.343 203.288 125.235 204.169 125.177C205.051 125.119 206.902 122.449 207.131 120.508C207.36 118.571 206.554 118.844 206.554 118.844C206.554 118.844 209.923 115.932 209.947 115.7L209.97 115.468L211.03 115.802C211.03 115.802 210.985 117.272 211.006 117.661C211.026 118.05 211.463 119.097 211.463 119.097C211.463 119.097 213.421 120.334 214.357 119.052C215.29 117.767 215.406 115.888 214.678 115.611C213.951 115.335 212.277 116.529 212.277 116.529L211.819 116.911C211.819 116.911 212.184 115.448 212.283 115.287C212.383 115.127 211.129 113.63 210.65 113.48C210.172 113.33 208.686 113.32 208.686 113.32C208.686 113.32 208.115 113.303 207.757 113.381C207.398 113.46 205.139 114.902 204.272 116.542C203.407 118.183 203.879 114.026 205.372 113.061C206.865 112.096 207.729 111.939 207.729 111.792C207.729 111.645 206.643 110.827 205.877 110.824C205.112 110.824 204.709 111.028 204.48 111.148C204.251 111.267 203.93 111.98 203.571 112.201C203.213 112.423 202.006 113.957 202.065 114.694C202.119 115.431 202.707 115.09 202.693 116.041C202.68 116.993 202.386 118.531 202.813 118.998C203.24 119.468 203.455 119.489 203.612 119.775C203.769 120.062 204.552 120.931 204.825 120.972C205.098 121.013 204.135 123.005 203.793 123.329C203.452 123.653 196.123 127.407 195.59 127.581C195.057 127.755 194.695 127.786 194.681 127.926C194.668 128.065 189.184 131.458 189.184 131.458L189.181 131.465Z" fill="#FF3D46"/>
<path d="M8.12112 113.589C10.3624 105.995 12.6036 98.4003 14.8449 90.8025C14.8107 90.7752 14.7731 90.7479 14.739 90.724C14.2265 91.5288 13.7174 92.3336 13.2049 93.1384C13.1434 93.1145 13.0854 93.0873 13.0239 93.0634C13.1161 92.7667 13.1913 92.4598 13.3074 92.1699C16.068 85.3121 18.4323 78.3281 20.1542 71.1292C20.7657 68.5682 21.818 66.106 22.3613 63.5314C23.3862 58.6582 24.0149 53.6999 25.1355 48.8506C26.14 44.4924 25.8701 40.0967 26.0921 35.7215C26.2698 32.2158 26.1161 28.6931 26.1366 25.1807C26.14 24.3997 26.2561 23.6188 26.321 22.8345C26.4235 22.8276 26.526 22.8174 26.6285 22.8106C26.7276 23.6972 26.8745 24.5805 26.9189 25.4705C27.0317 27.7417 27.0795 30.0163 27.2093 32.284C27.2333 32.7103 27.5168 33.1195 27.6808 33.5356C27.8243 33.5117 27.9678 33.4878 28.1113 33.4639C28.3334 32.0521 28.6101 30.6437 28.7605 29.2217C28.9552 27.37 29.1226 25.5114 29.1602 23.6529C29.1807 22.6503 29.0611 21.5863 28.7263 20.6485C27.8107 18.0671 26.8301 15.4992 25.7163 12.9927C24.9613 11.2911 24.196 9.53823 22.6209 8.16053C22.9558 8.14347 23.3008 8.06163 23.622 8.1196C28.2241 8.98238 32.8501 9.73602 37.4111 10.7829C41.7672 11.7855 46.0584 13.0848 50.3667 14.2818C51.2789 14.5341 51.6205 15.1684 51.3028 16.1199C50.2778 19.1788 49.27 22.2445 48.2587 25.3102C48.1733 25.566 48.1323 25.832 48.0468 26.1901C49.0889 25.8081 49.8269 25.2966 50.3291 24.369C51.1593 22.8311 52.0886 21.3476 53.0008 19.854C53.1648 19.5812 53.4381 19.3766 53.6636 19.1413C53.7354 19.1992 53.8106 19.2572 53.8823 19.3152C50.8552 25.4057 47.5207 31.3667 44.89 37.6243C42.2524 43.8956 40.3152 50.4636 38.2755 56.9941C42.3515 52.5063 46.4308 48.0185 50.5068 43.5308C50.5648 43.5683 50.6195 43.6024 50.6776 43.6399C50.189 44.4617 49.697 45.2836 49.2085 46.1088L49.5091 46.3134C52.1911 42.6646 54.8765 39.0191 57.5585 35.3702C57.497 35.3191 57.4355 35.2679 57.374 35.2168C56.8752 35.6601 56.373 36.1034 55.6828 36.7138C56.1304 34.7939 63.1514 26.5038 64.9792 25.5149C65.0954 25.6922 65.2116 25.8661 65.3516 26.0775C65.4712 25.9718 65.5635 25.9241 65.6113 25.8456C68.898 20.8395 72.1745 15.83 75.468 10.8307C75.7277 10.4385 76.0762 10.1043 76.3836 9.74284C76.6433 10.2032 77.0157 10.6329 77.1455 11.1274C77.4804 12.4164 77.7127 13.7293 78.0099 15.1582C79.7148 14.3875 81.3308 13.6611 82.9468 12.9348C84.5458 12.2152 86.1379 11.4752 87.7573 10.8034C88.1195 10.6534 88.7959 10.5783 88.9531 10.7727C89.1991 11.0762 89.2743 11.6798 89.1581 12.0788C88.6456 13.8589 88.0375 15.6117 87.4703 17.3748C87.4088 17.5692 87.2995 17.7908 87.3405 17.9716C87.6548 19.3322 86.7119 20.0381 85.8987 20.8156C80.2751 26.1798 74.6275 31.5167 69.0347 36.915C65.3824 40.4411 61.8087 44.0491 58.2042 47.6229C58.0641 47.7628 57.948 47.9265 57.8079 48.0936C58.1632 48.214 59.1643 47.5866 60.811 46.2111C61.7711 45.4098 62.7243 44.6015 63.6844 43.7967L63.8859 44.0355C62.5911 45.171 61.2723 46.2793 60.0082 47.4524C58.99 48.3971 58.0607 49.4406 57.0494 50.392C56.4994 50.9069 55.8536 51.323 55.2557 51.7902C50.3188 55.6573 45.8056 60.0121 41.1728 64.2202C40.9029 64.4658 40.7115 65.0182 40.7799 65.3729C41.7672 70.6518 42.4574 76.0228 43.9299 81.1653C45.3307 86.0487 47.7052 90.6183 50.5682 94.881C51.4702 96.2246 52.3209 97.6023 53.158 98.9869C53.3835 99.362 53.4791 99.8189 53.6329 100.238C53.5304 100.296 53.4279 100.354 53.322 100.412C52.0476 98.9664 50.7732 97.5239 49.4989 96.078C49.434 96.1189 49.3656 96.1598 49.3007 96.2008C49.779 97.2136 50.2027 98.2571 50.7391 99.2358C53.2058 103.744 55.6316 108.276 59.0789 112.157C59.2975 112.402 59.3454 112.805 59.4718 113.132H58.3375C58.8944 113.797 59.4752 114.551 60.1312 115.229C60.3293 115.434 60.7393 115.526 61.0468 115.519C62.943 115.478 64.8972 115.073 66.7251 115.397C70.145 116.007 72.8749 114.483 75.6252 113.033C78.4643 111.536 80.8457 109.436 82.489 106.612C82.7657 106.138 82.9605 105.623 83.2338 105.146C83.3773 104.9 83.6028 104.702 83.7941 104.481C83.9205 104.545 84.0504 104.61 84.1768 104.675C83.924 105.422 83.7907 106.244 83.3944 106.905C81.6485 109.828 79.8241 112.703 78.1056 115.472C79.4483 114.288 80.9413 112.972 82.4343 111.659C81.9082 112.982 80.7944 113.794 79.8036 114.715C78.8026 115.646 77.8186 116.59 76.9371 117.651C79.9129 115.84 82.858 114.012 84.9353 111.079C85.0548 111.178 85.1744 111.28 85.294 111.379C85.0241 111.911 84.8225 112.495 84.4706 112.969C83.022 114.923 81.669 116.972 80.0188 118.739C77.9382 120.965 75.5978 122.947 73.3703 125.037C73.2575 125.143 73.1584 125.262 73.1584 125.528C74.0331 125.01 74.9077 124.491 75.7858 123.977C75.8302 124.048 75.878 124.12 75.9224 124.191C74.3201 125.535 72.5913 126.756 71.1427 128.249C68.7443 130.722 65.8504 132.314 62.7106 133.542C61.0775 134.18 59.3727 134.476 57.6439 134.006C57.1588 133.873 56.6155 133.532 56.3388 133.123C53.913 129.562 51.5385 125.965 49.1538 122.374C48.7746 121.801 48.4329 121.204 47.876 120.706C48.9966 123.288 50.1139 125.873 51.2345 128.454C51.1115 128.515 50.9919 128.577 50.8689 128.642C49.1196 125.187 47.3704 121.733 45.6211 118.282C45.5288 118.316 45.4366 118.35 45.3444 118.384C45.8978 120.3 46.4513 122.22 47.0082 124.137C46.9125 124.178 46.8169 124.222 46.7212 124.263C46.465 123.806 46.1814 123.363 45.9559 122.892C42.9972 116.744 40.0453 110.592 37.0866 104.44C36.9977 104.259 36.8952 103.973 36.7552 103.945C35.7268 103.747 35.7336 102.868 35.5115 102.141C33.4582 95.3516 31.3946 88.5654 29.3652 81.7689C28.8356 79.9956 28.4017 78.1917 27.8414 76.0808C27.0009 78.1848 26.2083 80.0332 25.5147 81.9156C22.7952 89.2986 20.0722 96.6816 17.4449 104.099C17.0383 105.251 17.1237 106.578 16.806 107.867C16.1261 105.92 15.4462 103.976 14.6706 101.756C11.8725 105.623 10.171 109.688 8.12454 113.576L8.12112 113.589Z" fill="white"/>
<path d="M37.8485 120.744C37.886 121.051 37.91 123.584 38.3883 124C38.8666 124.416 39.0101 124.454 39.0408 124.659C39.0716 124.863 38.9759 124.931 39.0511 125.211C39.1262 125.491 39.2219 126.326 39.2322 126.626C39.2424 126.926 39.1843 126.848 39.034 127.001C38.8837 127.155 38.7436 126.896 38.5898 126.851C38.4361 126.807 38.0637 126.906 37.968 126.561C37.8724 126.217 37.9305 124.734 37.7425 124.867C37.5546 125 37.049 125.119 36.7859 125.596C36.5228 126.07 36.2734 126.016 36.1675 126.33C36.0616 126.643 36.3213 126.578 36.4135 126.766C36.5058 126.954 36.5468 127.7 36.4818 128.301C36.4169 128.901 36.5912 128.846 36.4716 128.989C36.352 129.133 35.7575 129.013 35.3783 129C34.9991 128.986 34.777 129.02 34.7292 129.075C34.6813 129.129 34.4763 128.863 34.3636 128.781C34.2508 128.7 34.7907 127.656 34.9991 127.67C35.2075 127.683 35.6721 127.813 35.6721 127.813V127.404C35.6721 127.404 35.45 127.428 35.4295 127.281C35.409 127.134 35.4159 126.248 35.5662 126.016C35.7165 125.784 36.1094 125.665 36.352 125.494C36.5946 125.324 37.1139 124.962 37.2881 124.785C37.4624 124.607 37.5239 124.174 37.5307 124.075C37.5375 123.977 37.5171 121.685 37.5478 121.378C37.582 121.074 37.8245 120.539 37.8485 120.744Z" fill="white"/>
<path d="M37.0114 112.696C37.0114 112.696 37.5444 114.234 37.8826 114.571C38.2174 114.912 38.7607 115.56 38.7607 115.56C38.7607 115.56 41.5042 121.675 41.7877 122.745C42.0713 123.816 42.2626 124.113 42.2626 124.113L42.7 125.371C42.7 125.371 42.1943 124.621 41.9107 124.127C41.6272 123.636 40.6159 121.753 40.6159 121.753C40.6159 121.753 43.1202 128.478 43.1919 128.515C43.2637 128.553 44.6679 132.096 44.8695 133.235C45.071 134.374 45.4571 135.523 45.4571 135.523C45.4571 135.523 44.9993 135.537 44.989 135.448C44.9788 135.36 45.3751 137.583 45.3751 137.583L44.2545 136.437C44.2545 136.437 38.624 119.97 38.4224 119.56C38.2209 119.155 38.1081 119.073 38.1081 119.073C38.1081 119.073 38.5899 119.363 38.6582 119.444C38.7265 119.526 38.8529 119.045 39.0238 119.032C39.1946 119.018 37.0627 113.651 36.9636 113.361L37.0114 112.685V112.696Z" fill="white"/>
<path d="M194.473 140.301C195.307 140.182 202.208 139.96 203.315 138.63C204.422 137.303 204.507 136.911 205.071 136.823C205.635 136.734 205.823 136.983 206.578 136.765C207.333 136.546 209.608 136.233 210.425 136.188C211.241 136.144 211.033 136.304 211.46 136.707C211.887 137.109 211.19 137.498 211.077 137.917C210.965 138.34 211.258 139.346 210.329 139.622C209.4 139.902 205.355 139.844 205.724 140.342C206.093 140.84 206.458 142.211 207.77 142.889C209.082 143.568 208.942 144.25 209.81 144.523C210.678 144.796 210.483 144.086 210.985 143.827C211.487 143.568 213.52 143.408 215.157 143.544C216.793 143.68 216.636 143.21 217.032 143.527C217.429 143.841 217.145 145.467 217.125 146.49C217.104 147.513 217.22 148.12 217.371 148.243C217.521 148.366 216.807 148.942 216.592 149.256C216.376 149.57 213.503 148.168 213.527 147.606C213.551 147.043 213.879 145.774 213.879 145.774L212.762 145.805C212.762 145.805 212.84 146.402 212.437 146.463C212.034 146.528 209.619 146.565 208.98 146.173C208.341 145.781 207.989 144.717 207.507 144.073C207.025 143.425 206.014 142.04 205.512 141.576C205.01 141.113 203.834 140.973 203.568 140.963C203.301 140.956 197.053 141.157 196.219 141.085C195.385 141.014 193.92 140.383 194.47 140.304L194.473 140.301Z" fill="#FF3D46"/>
<path d="M212.898 42.4361C212.4 44.1753 211.897 45.9145 211.399 47.6536C215.164 41.1812 218.355 34.412 222.294 28.0691C222.407 28.1236 222.523 28.1782 222.636 28.2328C222.277 29.2694 221.922 30.3061 221.481 31.5849C223.271 29.9174 224.867 28.4271 226.466 26.9335C226.592 27.0358 226.715 27.1381 226.838 27.2404C226.507 27.8679 226.175 28.4919 225.844 29.1194C225.892 29.2081 225.943 29.2967 225.991 29.3854C227.89 28.2703 229.797 27.162 231.689 26.0366C232.171 25.7502 232.465 24.8601 233.244 25.5967C233.275 25.624 233.425 25.5353 233.514 25.491C235.219 24.6384 236.92 23.7791 238.632 22.9436C238.984 22.7731 239.387 22.7015 239.879 22.5514C237.884 24.9113 235.902 27.0972 234.108 29.4263C232.352 31.7043 230.787 34.1289 229.137 36.4888C229.038 36.4308 228.939 36.3694 228.843 36.3114L230.275 33.4946C226.059 37.7335 222.437 42.3952 219.383 47.4968C216.325 52.6052 214.477 58.174 213.291 63.9952L212.871 63.944V61.7376C212.816 61.724 212.762 61.7137 212.707 61.7001C211.47 65.4615 210.234 69.2229 208.997 72.9878C208.918 72.9809 208.843 72.9741 208.764 72.9673C208.652 72.599 208.539 72.2273 208.368 71.668C207.992 73.1958 207.668 74.5667 207.306 75.9307C207.237 76.1933 207.029 76.4184 206.885 76.6605C206.694 76.4559 206.458 76.282 206.322 76.0467C206.011 75.5181 205.809 74.9179 205.45 74.4303C204.887 73.6698 204.347 73.7687 203.951 74.6212C203.793 74.9622 203.595 75.2828 203.284 75.8557V54.9207C203.035 56.486 202.792 58.0274 202.546 59.5653C202.399 59.5449 202.252 59.5244 202.106 59.5074C202.611 54.1125 203.117 48.7176 203.537 44.2639C200.872 53.011 197.934 62.6516 194.999 72.2921C194.822 72.2512 194.644 72.2102 194.466 72.1659C194.418 70.0243 195.341 68.0191 195.652 65.6764C194.377 68.0157 194.166 70.3824 194.063 72.6911C193.961 75.0032 194.278 77.3323 194.415 79.6717C194.319 79.6342 194.097 79.5523 193.855 79.4637C194.056 80.3162 195.115 80.8243 194.726 81.9701C191.156 80.1798 187.674 78.4338 184.193 76.6912C184.223 76.5855 184.251 76.4798 184.281 76.3741C184.579 76.4013 184.876 76.4286 185.149 76.4559C186.137 72.316 187.134 68.1453 188.129 63.9747C188.282 63.9986 188.436 64.0224 188.586 64.0463C188.45 65.216 188.313 66.3857 188.176 67.5554C189.512 64.3157 189.919 60.7998 191.111 57.5295C191.258 57.5636 191.405 57.5977 191.552 57.6318C191.337 58.7708 191.121 59.9098 190.91 61.0488L190.985 61.0692C193.113 54.9173 195.245 48.7654 197.374 42.6134C197.312 42.5895 197.247 42.5657 197.186 42.5384C196.783 43.3466 196.379 44.1582 195.976 44.9664L195.648 44.905C195.682 44.4788 195.665 44.0423 195.761 43.6297C196.612 40.0456 197.483 36.4683 198.344 32.8876C198.44 32.4955 198.511 32.0965 198.631 31.527C198.87 31.8134 199.031 31.9635 199.14 32.1442C199.83 33.3037 201.156 33.8425 202.44 33.5015C204.589 32.932 206.035 31.2917 207.743 30.0504C207.958 29.8935 208.156 29.7196 208.365 29.5525C208.443 29.6036 208.518 29.6582 208.597 29.7094C208.279 30.2652 207.962 30.8211 207.596 31.4588C209.465 31.4588 210.486 29.7707 212.003 29.1296C212.072 29.191 212.143 29.2558 212.212 29.3172C211.979 29.7742 211.788 30.2584 211.501 30.6778C210.954 31.4724 210.428 32.3011 209.759 32.9831C207.992 34.7905 207.531 37.0276 207.487 39.4113C207.398 43.9638 207.336 48.5164 207.275 53.069C207.268 53.4782 207.377 53.8874 207.398 54.2966C207.422 54.7945 207.405 55.2924 207.186 55.821C207.114 55.6744 207.046 55.5277 206.95 55.3299V57.8978C207.008 57.9046 207.063 57.9114 207.121 57.9182C208.833 52.7007 210.544 47.4865 212.26 42.269C212.471 42.3236 212.687 42.3815 212.898 42.4361Z" fill="white"/>
<path d="M150.67 94.5673C150.406 91.1332 151.22 87.822 151.899 84.4936C151.787 84.5175 151.677 84.5448 151.565 84.5687C151.404 84.2208 151.045 83.8252 151.114 83.5286C151.756 80.7084 152.47 77.9086 153.058 75.0338C150.618 78.6077 147.977 81.9428 144.212 84.1424C144.123 84.0537 144.035 83.9617 143.946 83.873C145.299 82.6487 146.655 81.4279 148.008 80.2037C147.95 80.1184 147.892 80.0366 147.837 79.9513C147.612 80.0911 147.383 80.2241 147.161 80.3707C144.745 81.9838 142.285 83.5047 139.351 83.9821C138.742 84.081 138.103 84.1049 137.492 84.0401C135.862 83.8696 135.357 83.3001 135.237 81.6871C135.213 81.3836 135.189 81.0391 135.032 80.797C134.895 80.589 134.561 80.3708 134.342 80.398C134.147 80.4219 133.881 80.7527 133.836 80.9812C133.754 81.4074 133.812 81.8576 133.583 82.3486C133.457 81.9224 133.276 81.5029 133.211 81.063C132.962 79.4023 132.719 77.7381 132.524 76.0671C132.135 72.7252 132.316 69.3934 132.801 66.0719C132.934 65.1751 133.109 65.0966 133.758 65.557C134.977 59.3334 137.041 53.4202 139.866 47.5445C140.044 47.906 140.126 48.0731 140.099 48.0151C141.992 45.4234 143.946 42.7396 145.914 40.066C145.972 39.9876 146.156 39.9978 146.317 39.9603C145.722 41.3619 145.148 42.7055 144.578 44.0525C144.629 44.0798 144.68 44.1071 144.732 44.1343C145.582 43.1011 146.399 42.0405 147.291 41.0413C150.413 37.5493 154.055 34.753 158.442 33.0206C159.389 32.6455 160.444 32.5602 161.432 32.2738C162.101 32.0794 162.74 31.7657 163.482 31.469C163.406 32.3215 163.345 33.3207 163.232 34.3165C162.631 39.6056 162.03 44.8948 161.394 50.1806C161.233 51.5037 160.97 52.8166 160.711 54.1261C160.67 54.3376 160.386 54.4978 160.215 54.6854C160.027 54.5115 159.792 54.3717 159.665 54.1602C158.938 52.9633 158.23 51.7527 157.523 50.542C157.335 50.2181 157.154 49.8907 156.97 49.5667C156.795 49.6622 156.621 49.7577 156.447 49.8532C156.348 50.6273 156.163 51.4014 156.177 52.1721C156.187 52.8746 155.829 53.011 155.296 53.0076C150.249 52.9462 146.682 55.7187 143.461 59.1561C143.416 59.2005 143.403 59.2755 143.338 59.4153C144.622 59.7188 144.745 58.1433 145.695 58.0103C144.694 59.5176 143.672 61.0078 142.699 62.5322C141.008 65.1785 139.45 67.91 138.927 71.0508C138.722 72.2818 138.77 73.605 138.978 74.8429C139.251 76.4661 140.447 77.0458 141.899 76.2581C143.375 75.4601 144.807 74.5223 146.108 73.4618C148.48 71.5316 150.355 69.1377 152.098 66.5835C151.773 66.3175 151.51 66.0174 151.182 65.8537C149.798 65.1546 149.658 63.5893 148.838 62.4981C148.435 61.9593 149.248 61.7888 149.706 61.7308C151.52 61.5057 153.341 61.3386 155.152 61.0931C156.553 60.9021 157.94 60.6157 159.334 60.4008C159.877 60.3156 160.434 60.2712 160.984 60.2576C162.802 60.2064 163.28 60.8271 162.744 62.597C161.787 65.7446 160.823 68.8921 159.826 72.0295C159.276 73.7584 158.685 75.4772 158.032 77.172C157.899 77.5199 157.383 77.7074 157.082 78.0075C156.898 78.1917 156.741 78.4338 156.659 78.6793C154.985 83.6036 153.328 88.5381 151.653 93.4624C151.503 93.9023 151.244 94.3081 151.032 94.7275C150.912 94.6798 150.793 94.6287 150.673 94.5809L150.67 94.5673Z" fill="white"/>
<path d="M170.472 69.0627C171.849 68.234 173.253 67.7156 174.196 66.7506C176 64.9091 178.593 64.4385 180.486 62.614C180.633 62.9346 180.718 63.1256 180.855 63.4257C181.466 63.071 182.054 62.6891 182.679 62.3821C182.963 62.2423 183.318 62.2526 183.643 62.1946C183.68 62.4947 183.721 62.7948 183.776 63.2313C185.149 62.863 186.512 62.5015 187.876 62.1366C187.947 62.2082 188.016 62.2833 188.088 62.3549C187.216 63.6439 185.88 64.5544 184.873 65.8025C185.289 65.7377 185.641 65.6832 185.99 65.6286C186.034 65.6934 186.079 65.7616 186.12 65.8264C185.197 66.6994 184.367 67.702 183.335 68.4215C178.35 71.917 173.311 75.3339 168.289 78.7748C168.06 78.9317 167.79 79.0306 167.54 79.1533C167.469 79.0954 167.397 79.0408 167.325 78.9828C167.493 78.4304 167.66 77.8813 167.827 77.3289C167.752 77.2743 167.677 77.2164 167.598 77.1618C166.943 77.9564 166.242 78.7202 165.637 79.5523C165.193 80.1593 164.913 80.8857 164.479 81.5029C164.271 81.7996 163.878 81.9701 163.57 82.1986C163.461 81.8405 163.225 81.4722 163.259 81.1278C163.4 79.7638 163.635 78.4099 163.806 77.0493C163.874 76.5207 163.871 75.9785 163.902 75.4465L163.574 75.2998C162.802 76.5241 162.033 77.7483 161.261 78.976C161.134 78.918 161.008 78.8635 160.882 78.8055C162.778 72.1659 164.674 65.5297 166.621 58.723C165.668 59.0641 164.879 59.3437 164.093 59.6267L163.816 59.4801C164.493 58.0171 165.173 56.5542 165.87 55.0503C166.123 55.1083 166.522 55.2719 166.919 55.2651C167.148 55.2617 167.53 55.023 167.581 54.8252C168.466 51.2309 169.307 47.6264 169.956 43.8206C168.418 44.6697 166.881 45.5155 165.077 46.5112C165.415 44.8164 166.96 43.3432 164.595 42.3099C165.337 41.9075 165.948 41.6108 166.526 41.2562C167.435 40.6969 167.421 40.2877 166.604 39.6295C166.208 39.3124 165.607 38.8554 165.631 38.4973C165.672 37.8938 166.201 37.4641 166.898 37.2322C167.65 36.9832 168.313 36.4785 169.016 36.0864C168.982 35.9875 168.945 35.8852 168.91 35.7863C168.367 35.8477 167.824 35.909 167.284 35.9704C167.253 35.8988 167.223 35.8306 167.195 35.759C167.475 35.6089 167.742 35.377 168.039 35.3259C169.324 35.1179 170.619 34.9781 171.907 34.7837C175.405 34.2551 178.897 33.689 182.399 33.1877C183.933 32.9695 185.481 32.8433 187.028 32.7546C187.336 32.7376 187.664 33.0684 187.982 33.2389C188.303 33.4094 188.644 33.7504 188.945 33.7163C190.308 33.5731 191.668 33.3685 193.011 33.0888C193.592 32.9695 194.121 32.6114 194.664 32.3659C194.832 33.4844 190.038 45.8463 189.078 46.4158C188.986 45.4882 188.925 44.622 188.802 43.7592C188.726 43.2204 188.593 42.6884 188.433 42.1667C188.139 41.2153 187.551 40.8265 186.471 40.7481C183.342 40.5264 180.557 41.7848 177.643 42.5111C177.134 42.6373 176.618 42.7294 176.068 42.6953C177.035 41.7643 178.634 42.1462 179.345 40.7105C177.189 41.2903 175.033 41.8734 172.839 42.4634C173.769 44.4754 175.535 45.1062 177.192 44.1923C175.357 47.4354 174.104 50.8899 173.236 54.607C174.356 54.4058 175.532 54.5524 175.925 53.1713C175.945 53.1031 176.085 53.0349 176.174 53.0247C177.773 52.8678 179.372 52.7211 181.121 52.5575C180.954 52.9564 180.855 53.1883 180.626 53.7306C182.071 53.5805 183.345 53.4475 184.62 53.3145C184.719 53.4202 184.814 53.5259 184.914 53.6317L182.734 54.7707C182.867 54.9207 183 55.0673 183.13 55.2174C183.629 55.347 184.124 55.4766 184.623 55.6096C180.721 57.1612 176.543 56.8543 172.484 57.6318C172.101 59.6267 171.726 61.6012 171.346 63.5723C171.387 63.5996 171.425 63.6269 171.466 63.6541C171.651 63.3677 171.832 63.0812 172.016 62.7948C172.177 62.8834 172.337 62.9755 172.498 63.0642C171.845 65.0046 171.189 66.9415 170.475 69.0627H170.472Z" fill="white"/>
<path d="M114.502 44.0525C114.311 44.5436 114.212 44.7925 114.058 45.1881C115.838 43.8172 117.45 42.4872 119.149 41.2766C123.183 38.4053 127.317 38.7736 130.324 41.2391C132.982 43.4182 134.554 46.2657 134.68 49.8054C134.82 53.7271 134.318 57.5499 132.996 61.25C132.863 61.6217 132.654 61.9627 132.463 62.3514C131.902 61.8297 131.926 61.8365 132.357 60.5441C132.545 59.9848 132.603 59.3812 132.569 58.7571C129.589 68.517 125.186 77.3152 116.545 83.4467C116.812 83.0375 117.054 82.6146 117.351 82.2293C117.662 81.8269 118.021 81.462 118.479 80.9437C117.047 81.8883 115.831 82.8397 114.485 83.5524C108.031 86.9899 103.538 83.2182 102.042 78.1951C100.744 73.8403 101.109 69.4855 102.254 65.1546C103.853 59.0981 106.237 53.3929 109.927 48.2913C111.103 46.6647 112.295 45.0108 114.499 44.0491L114.502 44.0525ZM122.92 64.3839C123.925 62.6004 124.454 60.8169 124.253 58.8765C124.017 56.6224 121.725 55.1424 118.882 55.3606C114.065 55.7289 110.382 58.8731 109.418 63.5996C109.237 64.4794 108.995 64.7045 108.157 64.3634C107.532 66.7301 107.051 69.0558 107.307 71.4429C107.556 73.7687 109.5 75.6102 111.492 75.3169C112.606 75.1532 113.802 74.6962 114.697 74.0244C117.86 71.651 119.986 68.459 121.345 64.7727C121.936 63.1699 122.363 61.5091 122.903 59.7461C123.593 61.3113 122.845 62.7709 122.92 64.3839Z" fill="white"/>
<path d="M113.033 31.3633C112.49 30.7119 112.015 30.1424 111.53 29.5559C113.726 28.4442 123.395 27.2472 125.978 27.8576C125.022 28.0213 124.355 28.1373 123.447 28.2941C124.044 28.3862 124.42 28.4715 124.796 28.4953C127.345 28.659 129.894 28.8125 132.442 28.9625C132.74 28.9796 133.191 29.1398 133.037 28.5158C133.037 28.5021 133.262 28.3828 133.375 28.3964C135.247 28.6351 137.12 28.8739 138.985 29.1535C139.292 29.2012 139.573 29.4434 140.058 29.6957C139.477 30.0367 139.081 30.272 138.647 30.5244C138.783 31.4622 139.204 32.4852 138.134 33.2048C138.288 34.9064 136.894 34.5756 135.972 34.8144C134.205 35.2713 132.432 35.6908 130.655 36.1136C130.297 36.1989 129.928 36.2364 129.566 36.2944C129.531 36.1921 129.497 36.0864 129.463 35.984C130.843 35.4998 132.224 35.019 133.601 34.5347L133.56 34.3608C130.252 34.9201 126.931 35.4077 123.641 36.0591C120.409 36.7002 117.211 37.5084 113.996 38.245C113.959 38.1256 113.921 38.0097 113.884 37.8903C114.095 37.7607 114.359 37.6755 114.505 37.4947C114.687 37.2731 114.939 36.9082 114.868 36.7172C114.43 35.5851 114.919 34.9576 115.91 34.5313C116.029 34.4802 116.125 34.3676 116.47 34.0982C115.455 33.747 114.625 33.3514 113.754 33.1877C112.514 32.9558 112.107 32.3761 113.036 31.3667L113.033 31.3633Z" fill="white"/>
<path d="M15.4018 116.324C15.2412 116.007 15.1079 115.744 14.9166 115.373C14.0078 116.474 13.9429 117.623 14.2128 118.851C13.878 117.569 13.5158 116.307 13.8746 114.97C14.0147 114.445 13.8951 113.838 13.8267 113.272C13.7208 112.358 13.7482 111.512 14.3119 110.704C14.5306 110.39 14.4246 109.869 14.4656 109.449C15.1455 109.814 15.4223 110.411 15.0806 111.188C14.6672 112.13 14.8756 113.037 15.1114 113.964C15.1353 114.06 15.1592 114.183 15.2309 114.241C16.027 114.868 15.7776 115.56 15.4018 116.328V116.324Z" fill="white"/>
</g>
<defs>
<clipPath id="clip0_592_20">
<rect width="248" height="166" fill="white"/>
</clipPath>
</defs>
</svg>
